<svg xmlns="http://www.w3.org/2000/svg" viewBox="0 0 65 47.27"><title>icon-projection</title><g id="Слой_2" data-name="Слой 2"><g id="Layer_1" data-name="Layer 1"><path d="M29.11,17.63H15.86a1.38,1.38,0,0,1-1.38-1.38V11.38A1.38,1.38,0,0,1,15.86,10H29.11a1.38,1.38,0,0,1,1.38,1.38v4.88A1.38,1.38,0,0,1,29.11,17.63ZM15.86,11.19a.18.18,0,0,0-.18.18v4.88a.18.18,0,0,0,.18.18H29.11a.18.18,0,0,0,.18-.18V11.38a.18.18,0,0,0-.18-.18Z" fill="#fff"/><path d="M29.11,36.52H15.86a1.27,1.27,0,0,1-1.38-1.17V20.61a1.27,1.27,0,0,1,1.38-1.17H29.11a1.27,1.27,0,0,1,1.38,1.17V35.36A1.27,1.27,0,0,1,29.11,36.52ZM15.86,20.64a.34.34,0,0,0-.21.06l0,14.64s.08,0,.18,0H29.11a.4.4,0,0,0,.18,0V20.63s-.08,0-.18,0Z" fill="#fff"/><path d="M47.14,27.08H33.89c-.95,0-1.38-1.31-1.38-2.53v-12c0-1.22.43-2.53,1.38-2.53H47.14c.95,0,1.38,1.31,1.38,2.53v12C48.52,25.77,48.09,27.08,47.14,27.08ZM34,25.88H47a2.53,2.53,0,0,0,.28-1.33v-12A2.53,2.53,0,0,0,47,11.19H34a2.53,2.53,0,0,0-.28,1.33v12A2.53,2.53,0,0,0,34,25.88Z" fill="#fff"/><path d="M47.14,36.52H33.89c-.8,0-1.38-.42-1.38-1V30.3c0-.57.58-1,1.38-1H47.14c.8,0,1.38.42,1.38,1v5.23C48.52,36.11,47.94,36.52,47.14,36.52ZM33.71,35.31l.18,0H47.14l.18,0V30.53l-.18,0H33.89l-.18,0Z" fill="#fff"/><rect x="18.51" y="23.45" width="8.16" height="1.2" fill="#fff"/><rect x="18.51" y="27.39" width="8.16" height="1.2" fill="#fff"/><rect x="18.51" y="31.32" width="8.16" height="1.2" fill="#fff"/><path d="M8.86,0A4.44,4.44,0,0,0,4.43,4.43v34H.74a.74.74,0,0,0-.74.74v3a5.18,5.18,0,0,0,5.17,5.17H59.83A5.18,5.18,0,0,0,65,42.1v-3a.77.77,0,0,0-.74-.74H60.57v-34A4.44,4.44,0,0,0,56.14,0Zm0,1.48H56.14a2.93,2.93,0,0,1,3,3V5.91H5.91V4.43A2.93,2.93,0,0,1,8.86,1.48Zm-3,5.91H59.09v31H5.91ZM1.48,39.89h62V42.1a3.67,3.67,0,0,1-3.69,3.69H5.17A3.67,3.67,0,0,1,1.48,42.1Z" fill="#fff"/></g></g></svg>