<svg xmlns="http://www.w3.org/2000/svg" viewBox="0 0 65 47.27"><title>icon-parsing</title><g id="Слой_2" data-name="Слой 2"><g id="Layer_1" data-name="Layer 1"><path d="M8.86,0A4.44,4.44,0,0,0,4.43,4.43v34H.74a.74.74,0,0,0-.74.74v3a5.18,5.18,0,0,0,5.17,5.17H59.83A5.18,5.18,0,0,0,65,42.1v-3a.77.77,0,0,0-.74-.74H60.57v-34A4.44,4.44,0,0,0,56.14,0Zm0,1.48H56.14a2.93,2.93,0,0,1,3,3V5.91H5.91V4.43A2.93,2.93,0,0,1,8.86,1.48Zm-3,5.91H59.09v31H5.91ZM1.48,39.89h62V42.1a3.67,3.67,0,0,1-3.69,3.69H5.17A3.67,3.67,0,0,1,1.48,42.1Z" fill="#fff"/><path d="M31.93,21h0s0,.11.08.15l0,0,.11.11h0s.08,0,.15.08h0l.15,0h0a.23.23,0,0,0,.15,0h0s.08,0,.15-.08h0l.11-.11,0,0s.08-.08.08-.11h0l2.28-5.71a.55.55,0,0,0-1-.42l-1.18,2.93V11A.57.57,0,0,0,32,11v6.77l-1.1-2.85a.57.57,0,0,0-1.07.38Z" fill="#fff"/><path d="M41.44,20.17H36.31a.59.59,0,0,0-.57.57V23H29.19V20.74a.59.59,0,0,0-.57-.57H23.56a.59.59,0,0,0-.57.57V34.82a.59.59,0,0,0,.57.57H41.44a.59.59,0,0,0,.57-.57V20.74A.59.59,0,0,0,41.44,20.17Zm-.57,14.08H24.13V21.31H28v2.28a.59.59,0,0,0,.57.57h7.69a.59.59,0,0,0,.57-.57V21.31h4Z" fill="#fff"/></g></g></svg>