<svg xmlns="http://www.w3.org/2000/svg" viewBox="0 0 65 47.27"><title>icon-audit</title><g id="Слой_2" data-name="Слой 2"><g id="Layer_1" data-name="Layer 1"><path d="M8.86,0A4.44,4.44,0,0,0,4.43,4.43v34H.74a.74.74,0,0,0-.74.74v3a5.18,5.18,0,0,0,5.17,5.17H59.83A5.18,5.18,0,0,0,65,42.1v-3a.77.77,0,0,0-.74-.74H60.57v-34A4.44,4.44,0,0,0,56.14,0Zm0,1.48H56.14a2.93,2.93,0,0,1,3,3V5.91H5.91V4.43A2.93,2.93,0,0,1,8.86,1.48Zm-3,5.91H59.09v31H5.91Zm23.64,3.69a8.86,8.86,0,1,0,5.72,15.63l7.8,7.8a.73.73,0,1,0,1-1l-7.8-7.8a8.86,8.86,0,0,0-6.76-14.59Zm0,1.48a7.39,7.39,0,1,1-7.39,7.39A7.38,7.38,0,0,1,29.55,12.56ZM1.48,39.89h62V42.1a3.67,3.67,0,0,1-3.69,3.69H5.17A3.67,3.67,0,0,1,1.48,42.1Z" fill="#fff"/></g></g></svg>