<svg xmlns="http://www.w3.org/2000/svg" viewBox="0 0 65 47.27"><title>icon-integration</title><g id="Слой_2" data-name="Слой 2"><g id="Layer_1" data-name="Layer 1"><path d="M8.86,0A4.44,4.44,0,0,0,4.43,4.43v34H.74a.74.74,0,0,0-.74.74v3a5.18,5.18,0,0,0,5.17,5.17H59.83A5.18,5.18,0,0,0,65,42.1v-3a.77.77,0,0,0-.74-.74H60.57v-34A4.44,4.44,0,0,0,56.14,0Zm0,1.48H56.14a2.93,2.93,0,0,1,3,3V5.91H5.91V4.43A2.93,2.93,0,0,1,8.86,1.48Zm-3,5.91H59.09v31H5.91ZM1.48,39.89h62V42.1a3.67,3.67,0,0,1-3.69,3.69H5.17A3.67,3.67,0,0,1,1.48,42.1Z" fill="#fff"/><path d="M20,27.24a13.26,13.26,0,0,1,21.75-14l.28.28,0-1.78a.36.36,0,0,1,.37-.37h0a.36.36,0,0,1,.37.37l0,2.68a.36.36,0,0,1-.37.37l-2.68,0h0a.37.37,0,0,1,0-.75l1.78,0-.28-.28A12.5,12.5,0,0,0,23.55,14a12.46,12.46,0,0,0-2.81,13,.42.42,0,0,1-.22.5l-.12,0A.45.45,0,0,1,20,27.24Zm21.43,4.24a12.54,12.54,0,0,1-17.69.22l-.28-.28,1.78,0a.37.37,0,1,0,0-.75l-2.68,0a.38.38,0,0,0-.37.37l0,2.68a.38.38,0,0,0,.37.37h0a.38.38,0,0,0,.37-.37L23,32l.28.28A13.26,13.26,0,0,0,42,32a13.27,13.27,0,0,0,3-13.76.39.39,0,1,0-.72.28A12.42,12.42,0,0,1,41.45,31.48ZM28.1,17.91a.21.21,0,0,0,.06-.22l-.28-1.06a.91.91,0,0,1,.53-1.09l1.34-.62a.86.86,0,0,1,.41-.09,1,1,0,0,1,.78.41l.62.9a.24.24,0,0,0,.22.09,6.39,6.39,0,0,1,1.09,0h0a.21.21,0,0,0,.22-.12l.53-.94a.93.93,0,0,1,.81-.47,1.33,1.33,0,0,1,.34.06l1.37.53a.93.93,0,0,1,.59,1.06l-.22,1.09a.28.28,0,0,0,.09.22,5.39,5.39,0,0,1,.75.72.21.21,0,0,0,.22.06l1.06-.28a.92.92,0,0,1,1.09.53L40.36,20A1,1,0,0,1,40,21.19l-.94.62A.24.24,0,0,0,39,22a5.68,5.68,0,0,1,0,1,.24.24,0,0,0,.12.22l.94.56A.94.94,0,0,1,40.49,25L40,26.34a1,1,0,0,1-.9.62.4.4,0,0,1-.19,0l-1.09-.22c-.09,0-.16,0-.22.09a4.08,4.08,0,0,1-.72.75.21.21,0,0,0-.06.22l.28,1.06a.91.91,0,0,1-.53,1.09l-1.34.62a.86.86,0,0,1-.41.09,1,1,0,0,1-.78-.41l-.62-.94a.24.24,0,0,0-.22-.09,5.34,5.34,0,0,1-1,0h0a.21.21,0,0,0-.22.12l-.56,1a1,1,0,0,1-.81.47,1.33,1.33,0,0,1-.34-.06l-1.37-.53a.93.93,0,0,1-.59-1.06l.22-1.09c0-.09,0-.16-.09-.22a8.5,8.5,0,0,1-.78-.72.21.21,0,0,0-.22-.06l-1.06.28a1,1,0,0,1-1.09-.53l-.62-1.34A1,1,0,0,1,25,24.28l.94-.62a.28.28,0,0,0,.09-.22,5.94,5.94,0,0,1,0-1.06.24.24,0,0,0-.12-.22l-1-.56a.94.94,0,0,1-.41-1.15L25,19.07v0a1,1,0,0,1,.87-.59.4.4,0,0,1,.19,0l1.09.22c.09,0,.16,0,.22-.09C27.6,18.41,27.85,18.13,28.1,17.91ZM28,19.16a1,1,0,0,1-1,.37l-1.09-.22h0a.26.26,0,0,0-.19.12l-.5,1.37a.16.16,0,0,0,.09.22l1,.56a1,1,0,0,1,.5.9c0,.31,0,.62,0,.94a1,1,0,0,1-.44.94l-.9.62a.21.21,0,0,0-.06.22L26,26.55a.16.16,0,0,0,.22.09l1.06-.28a.69.69,0,0,1,.25,0,1.15,1.15,0,0,1,.75.31,6.52,6.52,0,0,0,.69.62,1,1,0,0,1,.37,1l-.28,1.06a.18.18,0,0,0,.12.22l1.37.53a.16.16,0,0,0,.22-.09l.56-1a1,1,0,0,1,.9-.5,8.17,8.17,0,0,0,.87,0,1,1,0,0,1,.94.44l.62.94a.21.21,0,0,0,.22.06l1.34-.62a.16.16,0,0,0,.09-.22L36.06,28a1.05,1.05,0,0,1,.28-1c.22-.22.44-.44.62-.66a1,1,0,0,1,1-.37l1.09.22a.18.18,0,0,0,.22-.12l.53-1.37a.16.16,0,0,0-.09-.22l-.94-.56a1,1,0,0,1-.5-.9,4.32,4.32,0,0,0,0-.9,1,1,0,0,1,.44-.94l.94-.62a.21.21,0,0,0,.06-.22L39,19a.16.16,0,0,0-.22-.09l-1,.28a1.07,1.07,0,0,1-1-.28c-.22-.22-.44-.44-.66-.62a1,1,0,0,1-.37-1L36,16.2a.18.18,0,0,0-.12-.22l-1.37-.53a.16.16,0,0,0-.22.09l-.53.94a1,1,0,0,1-.9.5,4.7,4.7,0,0,0-.94,0,1,1,0,0,1-.94-.44l-.62-.9a.21.21,0,0,0-.22-.06l-1.34.62a.16.16,0,0,0-.09.22L29,17.51a1.07,1.07,0,0,1-.28,1A2.08,2.08,0,0,0,28,19.16ZM29.72,24a3,3,0,0,1,2.75-4.37,3,3,0,0,1,1,.19,3.08,3.08,0,0,1,1.75,1.56,3,3,0,0,1-2.75,4.37,3,3,0,0,1-1-.19A3.06,3.06,0,0,1,29.72,24Zm.72-.31a2.24,2.24,0,0,0,1.31,1.19,2.15,2.15,0,0,0,.78.12,2.29,2.29,0,0,0,2.15-1.53,2.13,2.13,0,0,0-.09-1.75,2.24,2.24,0,0,0-1.31-1.19,2.15,2.15,0,0,0-.78-.12A2.29,2.29,0,0,0,30.35,22,2.14,2.14,0,0,0,30.44,23.72Z" fill="#fff" stroke="#fff" stroke-miterlimit="10" stroke-width="0.5"/></g></g></svg>