<?xml version="1.0" encoding="utf-8"?>
<!-- Generator: Adobe Illustrator 17.0.0, SVG Export Plug-In . SVG Version: 6.00 Build 0)  -->
<!DOCTYPE svg PUBLIC "-//W3C//DTD SVG 1.1//EN" "http://www.w3.org/Graphics/SVG/1.1/DTD/svg11.dtd">
<svg version="1.1" id="Слой_1" xmlns="http://www.w3.org/2000/svg" xmlns:xlink="http://www.w3.org/1999/xlink" x="0px" y="0px"
	 width="130px" height="130px" viewBox="0 0 130 130" enable-background="new 0 0 130 130" xml:space="preserve">
<path fill="#FFFFFF" d="M130,56.885c0-0.003,0-0.007,0-0.01c0-0.013-0.002-0.025-0.002-0.038c-0.001-0.053-0.003-0.105-0.008-0.158
	c-0.003-0.027-0.007-0.053-0.011-0.079c-0.005-0.039-0.01-0.078-0.018-0.117c-0.008-0.04-0.018-0.078-0.028-0.117
	c-0.006-0.025-0.012-0.05-0.019-0.075c-0.015-0.051-0.034-0.101-0.053-0.151c-0.005-0.011-0.008-0.023-0.012-0.035l-0.005-0.012
	c-0.002-0.005-0.004-0.01-0.006-0.015l-18.27-44.66c-0.068-0.165-0.156-0.314-0.258-0.45c1.481-1.113,2.441-2.884,2.441-4.874
	c0-3.36-2.734-6.094-6.094-6.094c-3.259,0-5.928,2.571-6.086,5.791l-29.556,8.388c-1.826-3.12-5.598-4.745-9.232-3.714
	c-2.088,0.592-3.82,1.962-4.877,3.858c-0.719,1.289-1.066,2.715-1.03,4.153l-29.611,8.404c-1.11-1.517-2.901-2.504-4.92-2.504
	c-3.36,0-6.094,2.734-6.094,6.094c0,1.914,0.888,3.623,2.272,4.741L0.162,80.455c-0.002,0.004-0.003,0.008-0.005,0.012l-0.008,0.019
	C0.143,80.5,0.14,80.514,0.135,80.528c-0.018,0.046-0.035,0.093-0.049,0.141c-0.008,0.026-0.013,0.053-0.02,0.079
	c-0.009,0.037-0.02,0.075-0.027,0.113C0.03,80.9,0.026,80.939,0.02,80.978c-0.004,0.026-0.008,0.052-0.011,0.078
	c-0.005,0.051-0.007,0.101-0.008,0.152C0.002,81.222,0,81.236,0,81.25c0,0.005,0,0.009,0,0.014c0,0.009,0,0.019,0,0.028
	c0.023,12.301,10.037,22.301,22.343,22.301c12.308,0,22.323-10.003,22.343-22.307c0-0.009,0-0.018,0-0.027c0-0.003,0-0.007,0-0.01
	c0-0.013-0.002-0.025-0.002-0.038c-0.001-0.053-0.003-0.105-0.008-0.158c-0.003-0.027-0.007-0.053-0.011-0.079
	c-0.005-0.039-0.01-0.078-0.018-0.117c-0.008-0.04-0.018-0.078-0.028-0.117c-0.006-0.025-0.012-0.05-0.019-0.075
	c-0.015-0.051-0.034-0.101-0.053-0.151c-0.005-0.011-0.008-0.023-0.012-0.035l-0.005-0.012c-0.002-0.005-0.004-0.01-0.006-0.015
	l-18.27-44.66c-0.068-0.165-0.156-0.314-0.258-0.45c1.405-1.056,2.341-2.705,2.433-4.572l29.556-8.388
	c0.291,0.498,0.636,0.953,1.018,1.371c-0.062,0.196-0.097,0.404-0.097,0.621v83.281c-3.36,0-6.094,2.734-6.094,6.094v4.063H42.656
	c-3.36,0-6.094,2.734-6.094,6.094v4.063c0,1.122,0.909,2.031,2.031,2.031h52.813c1.122,0,2.031-0.909,2.031-2.031v-4.063
	c0-3.36-2.734-6.094-6.094-6.094H77.188v-4.063c0-3.36-2.734-6.094-6.094-6.094V24.375c0-0.214-0.033-0.419-0.094-0.613
	c0.417-0.459,0.787-0.967,1.096-1.522c0.719-1.289,1.066-2.715,1.03-4.153l29.611-8.404c0.315,0.43,0.684,0.818,1.098,1.152
	L85.474,56.08c-0.002,0.004-0.003,0.008-0.005,0.012l-0.008,0.019c-0.006,0.014-0.009,0.028-0.014,0.042
	c-0.018,0.046-0.035,0.093-0.049,0.141c-0.008,0.026-0.013,0.053-0.02,0.079c-0.01,0.037-0.02,0.075-0.027,0.113
	c-0.008,0.039-0.012,0.078-0.018,0.117c-0.004,0.026-0.008,0.052-0.011,0.078c-0.005,0.051-0.007,0.101-0.008,0.152
	c0,0.014-0.002,0.028-0.002,0.042c0,0.005,0,0.009,0,0.014c0,0.009,0,0.019,0,0.028c0.023,12.301,10.037,22.301,22.343,22.301
	c12.308,0,22.323-10.003,22.343-22.307C130,56.903,130,56.894,130,56.885z M107.656,4.063c1.12,0,2.031,0.911,2.031,2.031
	s-0.911,2.031-2.031,2.031s-2.031-0.911-2.031-2.031S106.536,4.063,107.656,4.063z M61.452,16.302
	c0.529-0.948,1.395-1.633,2.439-1.929c0.369-0.105,0.741-0.155,1.108-0.155c1.77,0,3.402,1.168,3.909,2.953c0,0.001,0,0.001,0,0.001
	c0,0,0,0.001,0,0.001c0.296,1.044,0.168,2.14-0.361,3.088c-0.529,0.948-1.395,1.633-2.439,1.929
	c-2.155,0.612-4.405-0.644-5.017-2.798c0,0,0-0.001,0-0.001c0,0,0,0,0-0.001C60.796,18.346,60.924,17.25,61.452,16.302z
	 M22.344,28.438c1.12,0,2.031,0.911,2.031,2.031S23.464,32.5,22.344,32.5s-2.031-0.911-2.031-2.031S21.224,28.438,22.344,28.438z
	 M39.631,79.219h-1.037c-1.122,0-2.031,0.909-2.031,2.031s0.909,2.031,2.031,2.031h1.919c-1.014,9.128-8.776,16.25-18.169,16.25
	S5.188,92.409,4.174,83.281h26.294c1.122,0,2.031-0.909,2.031-2.031s-0.909-2.031-2.031-2.031H5.048l17.298-42.627
	c0.004,0.247,0.051,0.497,0.15,0.739L39.631,79.219z M73.125,113.75v6.091c0,0.001,0,0.002,0,0.003c0,1.122,0.909,2.031,2.031,2.031
	h12.188c1.12,0,2.031,0.911,2.031,2.031v2.031h-48.75v-2.031c0-1.12,0.911-2.031,2.031-2.031h24.375
	c1.122,0,2.031-0.909,2.031-2.031s-0.909-2.031-2.031-2.031H56.875v-4.063c0-1.12,0.911-2.031,2.031-2.031h12.188
	C72.214,111.719,73.125,112.63,73.125,113.75z M62.969,107.656V26.143c0.658,0.171,1.34,0.264,2.034,0.264
	c0.671,0,1.351-0.089,2.028-0.264v81.513H62.969z M107.656,75.156c-9.394,0-17.155-7.122-18.169-16.25h26.294
	c1.122,0,2.031-0.909,2.031-2.031s-0.909-2.031-2.031-2.031H90.36l17.298-42.627c0.004,0.247,0.051,0.497,0.15,0.739l17.136,41.887
	h-1.037c-1.122,0-2.031,0.909-2.031,2.031s0.909,2.031,2.031,2.031h1.919C124.812,68.034,117.05,75.156,107.656,75.156z"/>
</svg>
