<?xml version="1.0" encoding="utf-8"?>
<!-- Generator: Adobe Illustrator 17.0.0, SVG Export Plug-In . SVG Version: 6.00 Build 0)  -->
<!DOCTYPE svg PUBLIC "-//W3C//DTD SVG 1.1//EN" "http://www.w3.org/Graphics/SVG/1.1/DTD/svg11.dtd">
<svg version="1.1" id="Слой_1" xmlns="http://www.w3.org/2000/svg" xmlns:xlink="http://www.w3.org/1999/xlink" x="0px" y="0px"
	 width="130px" height="130px" viewBox="0 0 130 130" enable-background="new 0 0 130 130" xml:space="preserve">
<g>
	<g>
		<g>
			<path fill="#FFFFFF" d="M35.863,49.237H15.372c-1.134,0-2.053,0.919-2.053,2.053s0.919,2.053,2.053,2.053h20.491
				c0.71,2.503,2.686,4.479,5.189,5.189v44.758c0,1.887-1.535,3.421-3.421,3.421H26.684c-1.887,0-3.421-1.535-3.421-3.421V59.5
				c0-1.134-0.919-2.053-2.053-2.053c-1.134,0-2.053,0.919-2.053,2.053v43.789c0,4.15,3.376,7.526,7.526,7.526h10.947
				c4.15,0,7.526-3.376,7.526-7.526V58.532c1.129-0.32,2.15-0.898,2.997-1.665l9.616,6.01c-0.026,0.089-0.05,0.179-0.073,0.269
				C54.428,63.965,52,66.928,52,70.448v32.842c0,4.15,3.376,7.526,7.526,7.526h10.947c4.15,0,7.526-3.376,7.526-7.526V70.448
				c0-3.52-2.429-6.483-5.698-7.302c-0.365-1.456-1.155-2.745-2.23-3.727l18.156-36.312c0.454,0.086,0.924,0.131,1.403,0.131
				c3.439,0,6.346-2.318,7.242-5.474h26.119l-1.97,1.97c-0.802,0.802-0.802,2.101,0,2.903c0.802,0.801,2.101,0.801,2.903,0
				l5.474-5.474c0.802-0.802,0.802-2.101,0-2.903l-5.474-5.474c-0.802-0.801-2.101-0.801-2.903,0c-0.802,0.802-0.802,2.101,0,2.903
				l1.97,1.97H96.873c-0.896-3.156-3.803-5.474-7.242-5.474c-4.15,0-7.526,3.376-7.526,7.526c0,2.197,0.947,4.178,2.453,5.555
				L66.402,57.579c-0.454-0.086-0.923-0.131-1.403-0.131c-1.941,0-3.713,0.739-5.049,1.95l-9.616-6.01
				c0.194-0.666,0.298-1.37,0.298-2.098c0-3.439-2.318-6.346-5.474-7.242V7.5c0-4.15-3.376-7.526-7.526-7.526H26.684
				c-4.15,0-7.526,3.376-7.526,7.526v35.67c0,1.134,0.919,2.053,2.053,2.053c1.134,0,2.053-0.919,2.053-2.053V7.5
				c0-1.886,1.535-3.421,3.421-3.421h10.947c1.887,0,3.421,1.535,3.421,3.421v36.548C38.55,44.758,36.574,46.734,35.863,49.237z
				 M89.631,12.29c1.887,0,3.421,1.535,3.421,3.421c0,1.887-1.535,3.421-3.421,3.421s-3.421-1.535-3.421-3.421
				S87.745,12.29,89.631,12.29z M65,61.553c1.887,0,3.421,1.535,3.421,3.421c0,1.887-1.535,3.421-3.421,3.421
				s-3.421-1.535-3.421-3.421C61.579,63.087,63.114,61.553,65,61.553z M65,72.5c3.285,0,6.086-2.116,7.11-5.056
				c1.062,0.581,1.785,1.71,1.785,3.004v32.842c0,1.887-1.535,3.421-3.421,3.421H59.526c-1.887,0-3.421-1.535-3.421-3.421V70.448
				c0-1.294,0.722-2.423,1.785-3.004C58.914,70.385,61.715,72.5,65,72.5z M43.105,47.869c1.887,0,3.421,1.535,3.421,3.421
				c0,1.887-1.535,3.421-3.421,3.421c-1.887,0-3.421-1.535-3.421-3.421C39.684,49.403,41.219,47.869,43.105,47.869z"/>
			<path fill="#FFFFFF" d="M123.925,115.523c-0.802-0.801-2.101-0.801-2.903,0c-0.802,0.802-0.802,2.101,0,2.903l1.97,1.97H13
				c-1.887,0-3.421-1.535-3.421-3.421V6.982l1.97,1.97c0.802,0.801,2.101,0.801,2.903,0c0.802-0.802,0.802-2.101,0-2.903
				L8.978,0.575c-0.802-0.801-2.101-0.801-2.903,0L0.601,6.049C-0.2,6.851-0.2,8.15,0.601,8.952c0.802,0.801,2.101,0.801,2.903,0
				l1.97-1.97v109.992c0,4.15,3.376,7.526,7.526,7.527h109.992l-1.97,1.97c-0.802,0.802-0.802,2.101,0,2.903
				c0.401,0.401,0.926,0.601,1.452,0.601c0.525,0,1.051-0.2,1.452-0.601l5.474-5.474c0.802-0.802,0.802-2.101,0-2.903
				L123.925,115.523z"/>
			<path fill="#FFFFFF" d="M92.368,32.816c-4.15,0-7.526,3.376-7.526,7.526v62.947c0,4.15,3.376,7.526,7.526,7.526h10.947
				c4.15,0,7.526-3.376,7.526-7.526V40.343c0-4.15-3.376-7.526-7.526-7.526H92.368z M106.737,40.343v62.947
				c0,1.887-1.535,3.421-3.421,3.421H92.368c-1.887,0-3.421-1.535-3.421-3.421V40.343c0-1.887,1.535-3.421,3.421-3.421h10.947
				C105.202,36.921,106.737,38.456,106.737,40.343z"/>
		</g>
	</g>
</g>
</svg>
