<?xml version="1.0" encoding="utf-8"?>
<!-- Generator: Adobe Illustrator 17.0.0, SVG Export Plug-In . SVG Version: 6.00 Build 0)  -->
<!DOCTYPE svg PUBLIC "-//W3C//DTD SVG 1.1//EN" "http://www.w3.org/Graphics/SVG/1.1/DTD/svg11.dtd">
<svg version="1.1" id="Слой_1" xmlns="http://www.w3.org/2000/svg" xmlns:xlink="http://www.w3.org/1999/xlink" x="0px" y="0px"
	 width="130px" height="130px" viewBox="0 0 130 130" enable-background="new 0 0 130 130" xml:space="preserve">
<g>
	<path fill="#FFFFFF" d="M0,44.784c0,24.694,20.09,44.784,44.784,44.784c10.161,0,19.54-3.403,27.063-9.127l9.072,9.072
		c0.058,0.058,0.118,0.11,0.18,0.159c-0.155,0.743-0.236,1.506-0.236,2.282c0,2.963,1.153,5.748,3.248,7.842l26.954,26.954
		c2.095,2.095,4.881,3.249,7.843,3.249s5.748-1.154,7.843-3.249c2.095-2.094,3.248-4.879,3.248-7.842
		c0-2.962-1.153-5.748-3.248-7.842L99.797,84.113c-2.095-2.095-4.881-3.249-7.843-3.249c-0.776,0-1.539,0.081-2.282,0.236
		c-0.05-0.062-0.102-0.123-0.16-0.181l-9.072-9.072c5.724-7.523,9.127-16.902,9.127-27.063C89.568,20.09,69.478,0,44.784,0
		C20.09,0,0,20.09,0,44.784z M89.703,99.431l9.728-9.728l24.343,24.343c1.299,1.299,2.015,3.026,2.015,4.864
		c0,1.838-0.715,3.565-2.015,4.863c-1.3,1.3-3.027,2.016-4.865,2.016c-1.837,0-3.565-0.716-4.864-2.015L89.703,99.431z
		 M85.075,91.955c0-1.838,0.715-3.565,2.015-4.863c1.341-1.341,3.103-2.012,4.865-2.012c1.599,0,3.195,0.559,4.48,1.664
		l-9.695,9.695C85.664,95.191,85.075,93.619,85.075,91.955z M75.088,77.726c0.915-0.842,1.795-1.722,2.637-2.637l7.817,7.817
		c-0.505,0.359-0.984,0.76-1.431,1.207c-0.446,0.446-0.847,0.925-1.206,1.43L75.088,77.726z M4.212,44.784
		c0-22.372,18.201-40.572,40.572-40.572s40.572,18.201,40.572,40.572S67.156,85.356,44.784,85.356S4.212,67.156,4.212,44.784z"/>
	<path fill="#FFFFFF" d="M8.985,44.784c0,19.74,16.059,35.799,35.799,35.799s35.799-16.059,35.799-35.799S64.524,8.985,44.784,8.985
		S8.985,25.044,8.985,44.784z M13.197,44.784c0-17.417,14.17-31.587,31.587-31.587s31.587,14.17,31.587,31.587
		s-14.17,31.587-31.587,31.587S13.197,62.201,13.197,44.784z"/>
	<path fill="#FFFFFF" d="M17.97,44.784c0,6.218,2.177,12.278,6.13,17.065c0.416,0.504,1.018,0.765,1.625,0.765
		c0.472,0,0.947-0.158,1.34-0.482c0.897-0.741,1.023-2.068,0.283-2.965c-3.331-4.034-5.166-9.142-5.166-14.383
		c0-7.672,3.843-14.757,10.279-18.951c0.974-0.635,1.249-1.94,0.614-2.914c-0.635-0.975-1.94-1.249-2.914-0.614
		C22.527,27.28,17.97,35.683,17.97,44.784z"/>
	<path fill="#FFFFFF" d="M38.22,20.864c0.187,1.015,1.072,1.726,2.069,1.726c0.126,0,0.254-0.012,0.383-0.035
		c1.347-0.247,2.73-0.373,4.112-0.373c1.163,0,2.106-0.943,2.106-2.106s-0.943-2.106-2.106-2.106c-1.636,0-3.276,0.149-4.873,0.442
		C38.767,18.622,38.01,19.72,38.22,20.864z"/>
</g>
</svg>
