<?xml version="1.0" encoding="utf-8"?>
<!-- Generator: Adobe Illustrator 17.0.0, SVG Export Plug-In . SVG Version: 6.00 Build 0)  -->
<!DOCTYPE svg PUBLIC "-//W3C//DTD SVG 1.1//EN" "http://www.w3.org/Graphics/SVG/1.1/DTD/svg11.dtd">
<svg version="1.1" id="Слой_1" xmlns="http://www.w3.org/2000/svg" xmlns:xlink="http://www.w3.org/1999/xlink" x="0px" y="0px"
	 width="130px" height="130px" viewBox="0 0 130 130" enable-background="new 0 0 130 130" xml:space="preserve">
<g>
	<g>
		<g>
			<path fill="#FFFFFF" d="M118.064,20.159L98.523,0.618c-0.378-0.377-0.906-0.596-1.44-0.596H16.749
				c-3.517,0-6.378,2.861-6.378,6.378v2.307l4.071,0V6.399c0-1.272,1.035-2.307,2.307-2.307h78.299v13.163
				c0,3.517,2.861,6.378,6.378,6.378h13.163v82.641c0,1.125,0.911,2.036,2.036,2.036c1.124,0,2.036-0.911,2.036-2.036V21.598
				C118.66,21.065,118.44,20.536,118.064,20.159z M101.426,19.562c-1.272,0-2.307-1.035-2.307-2.307V6.971l12.591,12.591H101.426z"
				/>
			<path fill="#FFFFFF" d="M116.624,112.923c-1.124,0-2.036,0.911-2.036,2.036v8.685c0,1.272-1.035,2.307-2.307,2.307H16.749
				c-1.272,0-2.307-1.035-2.307-2.307V7.926h-4.071v115.718c0,3.517,2.861,6.378,6.378,6.378h95.532
				c3.517,0,6.378-2.861,6.378-6.378v-8.685C118.66,113.835,117.748,112.923,116.624,112.923z"/>
		</g>
	</g>
	<g>
		<g>
			<path fill="#FFFFFF" d="M54.319,35.594h49.763c0.639,0,1.16-0.52,1.16-1.16c0-0.639-0.52-1.159-1.16-1.159H54.319
				c-0.639,0-1.16,0.52-1.16,1.159C53.159,35.074,53.679,35.594,54.319,35.594z"/>
			<path fill="#FFFFFF" d="M104.081,36.478H54.319c-1.126,0-2.043-0.916-2.043-2.043c0-1.127,0.917-2.043,2.043-2.043h49.763
				c1.127,0,2.043,0.916,2.043,2.043C106.124,35.561,105.208,36.478,104.081,36.478z M54.319,34.159
				c-0.152,0-0.276,0.124-0.276,0.276s0.124,0.276,0.276,0.276h49.763c0.152,0,0.276-0.124,0.276-0.276
				c0-0.152-0.124-0.276-0.276-0.276H54.319z"/>
		</g>
		<g>
			<path fill="#FFFFFF" d="M54.319,44.902h39.322c0.639,0,1.16-0.52,1.16-1.16c0-0.639-0.52-1.159-1.16-1.159H54.319
				c-0.639,0-1.16,0.52-1.16,1.159C53.159,44.382,53.679,44.902,54.319,44.902z"/>
			<path fill="#FFFFFF" d="M93.641,45.785H54.319c-1.127,0-2.043-0.916-2.043-2.043c0-1.126,0.917-2.043,2.043-2.043h39.322
				c1.127,0,2.043,0.916,2.043,2.043C95.684,44.869,94.768,45.785,93.641,45.785z M54.319,43.466c-0.152,0-0.276,0.124-0.276,0.276
				s0.124,0.276,0.276,0.276h39.322c0.152,0,0.276-0.124,0.276-0.276s-0.124-0.276-0.276-0.276H54.319z"/>
		</g>
		<g>
			<path fill="#FFFFFF" d="M104.081,63.043H54.319c-0.639,0-1.16,0.52-1.16,1.16c0,0.639,0.52,1.16,1.16,1.16h49.763
				c0.639,0,1.16-0.52,1.16-1.16C105.241,63.563,104.721,63.043,104.081,63.043z"/>
			<path fill="#FFFFFF" d="M104.081,66.246H54.319c-1.127,0-2.043-0.916-2.043-2.043c0-1.127,0.917-2.043,2.043-2.043h49.763
				c1.127,0,2.043,0.916,2.043,2.043C106.124,65.329,105.208,66.246,104.081,66.246z M54.319,63.927
				c-0.152,0-0.276,0.124-0.276,0.276c0,0.152,0.124,0.276,0.276,0.276h49.763c0.152,0,0.276-0.124,0.276-0.276
				c0-0.152-0.124-0.276-0.276-0.276H54.319z"/>
		</g>
		<g>
			<path fill="#FFFFFF" d="M54.319,74.671h39.322c0.639,0,1.16-0.52,1.16-1.16c0-0.639-0.52-1.16-1.16-1.16H54.319
				c-0.639,0-1.16,0.52-1.16,1.16C53.159,74.15,53.679,74.671,54.319,74.671z"/>
			<path fill="#FFFFFF" d="M93.641,75.554H54.319c-1.126,0-2.043-0.916-2.043-2.043c0-1.127,0.917-2.043,2.043-2.043h39.322
				c1.127,0,2.043,0.916,2.043,2.043C95.684,74.638,94.768,75.554,93.641,75.554z M54.319,73.235c-0.152,0-0.276,0.124-0.276,0.276
				s0.124,0.276,0.276,0.276h39.322c0.152,0,0.276-0.124,0.276-0.276c0-0.152-0.124-0.276-0.276-0.276H54.319z"/>
		</g>
		<g>
			<path fill="#FFFFFF" d="M104.081,92.812H54.319c-0.639,0-1.16,0.52-1.16,1.16c0,0.639,0.52,1.16,1.16,1.16h49.763
				c0.639,0,1.16-0.52,1.16-1.16C105.241,93.332,104.721,92.812,104.081,92.812z"/>
			<path fill="#FFFFFF" d="M104.081,96.015H54.319c-1.127,0-2.043-0.916-2.043-2.043c0-1.127,0.917-2.043,2.043-2.043h49.763
				c1.127,0,2.043,0.916,2.043,2.043C106.124,95.098,105.208,96.015,104.081,96.015z M54.319,93.695
				c-0.152,0-0.276,0.124-0.276,0.276c0,0.152,0.124,0.276,0.276,0.276h49.763c0.152,0,0.276-0.124,0.276-0.276
				c0-0.152-0.124-0.276-0.276-0.276H54.319z"/>
		</g>
		<g>
			<path fill="#FFFFFF" d="M54.319,104.439h39.322c0.639,0,1.16-0.52,1.16-1.16c0-0.639-0.52-1.16-1.16-1.16H54.319
				c-0.639,0-1.16,0.52-1.16,1.16C53.159,103.919,53.679,104.439,54.319,104.439z"/>
			<path fill="#FFFFFF" d="M93.641,105.322H54.319c-1.126,0-2.043-0.916-2.043-2.043c0-1.127,0.917-2.043,2.043-2.043h39.322
				c1.127,0,2.043,0.916,2.043,2.043C95.684,104.406,94.768,105.322,93.641,105.322z M54.319,103.003
				c-0.152,0-0.276,0.124-0.276,0.276c0,0.152,0.124,0.276,0.276,0.276h39.322c0.152,0,0.276-0.124,0.276-0.276
				c0-0.152-0.124-0.276-0.276-0.276H54.319z"/>
		</g>
		<g>
			<path fill="#FFFFFF" d="M41.757,58.21H27.349c-1.963,0-3.559,1.597-3.559,3.56v14.407c0,1.963,1.597,3.56,3.559,3.56h14.408
				c1.963,0,3.56-1.597,3.56-3.56V61.77C45.318,59.807,43.72,58.21,41.757,58.21z M26.109,61.77c0-0.684,0.556-1.241,1.24-1.241
				h14.408c0.684,0,1.242,0.557,1.242,1.241v14.407c0,0.684-0.557,1.242-1.242,1.242H27.349c-0.684,0-1.24-0.557-1.24-1.242V61.77z"
				/>
			<path fill="#FFFFFF" d="M41.757,80.621H27.349c-2.45,0-4.443-1.993-4.443-4.444V61.77c0-2.45,1.993-4.443,4.443-4.443h14.408
				c2.45,0,4.444,1.993,4.444,4.443v14.407C46.201,78.628,44.208,80.621,41.757,80.621z M27.349,59.094
				c-1.475,0-2.676,1.201-2.676,2.676v14.407c0,1.476,1.2,2.677,2.676,2.677h14.408c1.476,0,2.677-1.201,2.677-2.677V61.77
				c0-1.476-1.201-2.676-2.677-2.676H27.349z M41.757,78.302H27.349c-1.171,0-2.124-0.953-2.124-2.125V61.77
				c0-1.171,0.953-2.124,2.124-2.124h14.408c1.172,0,2.125,0.953,2.125,2.124v14.407C43.882,77.349,42.929,78.302,41.757,78.302z
				 M27.349,61.413c-0.197,0-0.357,0.16-0.357,0.358v14.407c0,0.198,0.16,0.358,0.357,0.358h14.408c0.197,0,0.358-0.161,0.358-0.358
				V61.77c0-0.197-0.161-0.358-0.358-0.358H27.349z"/>
		</g>
		<g>
			<path fill="#FFFFFF" d="M41.757,87.978H27.349c-1.963,0-3.559,1.597-3.559,3.56v14.407c0,1.963,1.597,3.561,3.559,3.561h14.408
				c1.963,0,3.56-1.597,3.56-3.561V91.539C45.318,89.575,43.72,87.978,41.757,87.978z M26.109,91.539
				c0-0.684,0.556-1.241,1.24-1.241h14.408c0.684,0,1.242,0.557,1.242,1.241v14.407c0,0.685-0.557,1.242-1.242,1.242H27.349
				c-0.684,0-1.24-0.557-1.24-1.242V91.539z"/>
			<path fill="#FFFFFF" d="M41.757,110.389H27.349c-2.45,0-4.443-1.994-4.443-4.444V91.538c0-2.45,1.993-4.444,4.443-4.444h14.408
				c2.45,0,4.444,1.993,4.444,4.444v14.407C46.201,108.396,44.208,110.389,41.757,110.389z M27.349,88.862
				c-1.475,0-2.676,1.201-2.676,2.677v14.407c0,1.476,1.2,2.677,2.676,2.677h14.408c1.476,0,2.677-1.201,2.677-2.677V91.539
				c0-1.476-1.201-2.677-2.677-2.677H27.349z M41.757,108.071H27.349c-1.171,0-2.124-0.953-2.124-2.125V91.539
				c0-1.171,0.953-2.125,2.124-2.125h14.408c1.172,0,2.125,0.953,2.125,2.125v14.407C43.882,107.117,42.929,108.071,41.757,108.071z
				 M27.349,91.181c-0.197,0-0.357,0.161-0.357,0.358v14.407c0,0.198,0.16,0.358,0.357,0.358h14.408
				c0.197,0,0.358-0.161,0.358-0.358V91.539c0-0.197-0.161-0.358-0.358-0.358H27.349z"/>
		</g>
		<g>
			<path fill="#FFFFFF" d="M41.757,28.442H27.349c-1.963,0-3.559,1.597-3.559,3.56v14.407c0,1.963,1.597,3.56,3.559,3.56h14.408
				c1.963,0,3.56-1.597,3.56-3.56V32.001C45.318,30.039,43.72,28.442,41.757,28.442z M26.109,32.001c0-0.684,0.556-1.241,1.24-1.241
				h14.408c0.684,0,1.242,0.557,1.242,1.241v14.407c0,0.684-0.557,1.242-1.242,1.242H27.349c-0.684,0-1.24-0.557-1.24-1.242V32.001z
				"/>
			<path fill="#FFFFFF" d="M41.757,50.852H27.349c-2.45,0-4.443-1.993-4.443-4.444V32.001c0-2.45,1.993-4.443,4.443-4.443h14.408
				c2.45,0,4.444,1.993,4.444,4.443v14.407C46.201,48.859,44.208,50.852,41.757,50.852z M27.349,29.325
				c-1.475,0-2.676,1.201-2.676,2.676v14.407c0,1.476,1.2,2.677,2.676,2.677h14.408c1.476,0,2.677-1.201,2.677-2.677V32.001
				c0-1.476-1.201-2.676-2.677-2.676H27.349z M41.757,48.534H27.349c-1.171,0-2.124-0.953-2.124-2.125V32.001
				c0-1.171,0.953-2.124,2.124-2.124h14.408c1.172,0,2.125,0.953,2.125,2.124v14.407C43.882,47.58,42.929,48.534,41.757,48.534z
				 M27.349,31.644c-0.197,0-0.357,0.16-0.357,0.358v14.407c0,0.198,0.16,0.358,0.357,0.358h14.408c0.197,0,0.358-0.161,0.358-0.358
				V32.001c0-0.197-0.161-0.358-0.358-0.358H27.349z"/>
		</g>
	</g>
</g>
</svg>
